<?xml version="1.0" encoding="utf-8"?>
<!-- Generator: Adobe Illustrator 16.0.0, SVG Export Plug-In . SVG Version: 6.00 Build 0)  -->
<!DOCTYPE svg PUBLIC "-//W3C//DTD SVG 1.1//EN" "http://www.w3.org/Graphics/SVG/1.1/DTD/svg11.dtd">
<svg version="1.1" xmlns="http://www.w3.org/2000/svg" xmlns:xlink="http://www.w3.org/1999/xlink" x="0px" y="0px" width="273px"
	 height="104px" viewBox="0 0 273 104" enable-background="new 0 0 273 104" xml:space="preserve">
<g id="Layer_1">
	<g>
		<path fill="#9E9E9E" d="M60.948,16.224c0-1.538-0.41-2.809-1.231-3.822c-0.656-0.818-1.968-1.9-3.937-3.274
			c-1.542-3.99-4.134-5.881-7.773-5.616c-1.902,0.143-5.558,1.345-10.964,3.662c-2.228-2.56-3.784-3.84-4.668-3.769
			c-0.655,0.051-0.982,0.843-0.982,2.377c0,1.189-0.197,2.738-0.589,4.656c-3.897,2.05-8.332,4.974-13.303,8.827
			c-4.611,3.624-7.747,6.481-9.413,8.528c-2.417,3.004-3.625,5.728-3.625,8.131c0,0.977,0.212,1.933,0.637,2.865
			c2.874,6.763,4.818,9.958,5.831,9.821c0.719-0.103,1.079-0.714,1.079-1.836c0-0.36-0.065-0.732-0.196-1.114
			c-0.555-1.647-0.866-2.633-0.931-2.945c-0.229-0.774-0.343-1.583-0.343-2.427c0.001-5.879,6.139-12.902,18.448-20.774
			c-3.896,18.401-9.837,39.322-17.811,63.614c-0.948,0.488-1.47,1.082-1.568,1.789c-0.13,0.874,0.294,1.79,1.274,2.731
			c1.568,1.41,2.892,1.969,3.971,1.711c0.785-0.189,1.537-0.81,2.256-1.855c1.472-2.137,3.238-4.096,5.299-5.881
			c1.897-1.668,3.256-2.535,4.074-2.615c1.146-0.161,1.719-0.766,1.719-1.808c0-0.812-0.376-1.956-1.129-3.447
			c-0.917-1.842-1.849-2.765-2.798-2.752c-0.557,0.045-1.31,0.5-2.258,1.373c-1.668,1.578-2.633,2.461-2.895,2.635
			c4.579-15.229,9.604-34.958,15.074-58.544c4.717-2.808,9.617-4.604,14.7-5.469c1.083-0.343,2.147-0.442,3.198-0.306
			c2.296,0.363,3.248,2.096,2.854,5.229c-0.688,5.714-2.838,11.75-6.445,18.286c-2.82,5.151-5.804,9.424-8.95,12.763
			c-1.573,1.687-3.85,2.828-6.831,3.384c-1.801,0.334-2.701,0.883-2.701,1.653c0,0.5,0.393,0.87,1.178,1.104
			c3.996,1.116,6.519,1.513,7.567,1.303c1.802-0.367,3.638-1.52,5.507-3.424c2.655-2.695,5.779-7.488,9.371-14.205
			c3.592-6.713,5.815-11.969,6.669-15.96C60.734,18.863,60.948,17.333,60.948,16.224z"/>
		<path fill="#9E9E9E" d="M14.323,90.42c-1.249,0-2.594-0.663-4.112-2.028c-1.248-1.196-1.776-2.408-1.595-3.622
			c0.128-0.926,0.71-1.708,1.729-2.324c7.792-23.766,13.413-43.68,17.149-60.761c-10.45,7.006-15.957,13.415-15.958,18.604
			c0,0.744,0.102,1.466,0.302,2.144c0.046,0.206,0.188,0.736,0.92,2.909c0.165,0.48,0.249,0.964,0.249,1.434
			c0,2.302-1.355,2.743-1.938,2.826l-0.205,0.015c-1.09,0-2.596-0.807-6.687-10.434c-0.472-1.034-0.716-2.137-0.716-3.256
			c0-2.639,1.294-5.585,3.846-8.758c1.745-2.144,4.965-5.065,9.575-8.688c4.749-3.682,9.129-6.606,13.032-8.702
			c0.317-1.635,0.478-2.978,0.478-3.996c0-2.141,0.641-3.276,1.905-3.375l0.148-0.006c0.829,0,2.058,0.439,4.869,3.569
			c5.076-2.146,8.646-3.309,10.618-3.456c4.06-0.297,6.938,1.727,8.667,5.966c1.969,1.388,3.211,2.438,3.898,3.295
			c0.961,1.186,1.451,2.684,1.451,4.447c0,1.188-0.217,2.762-0.663,4.811c-0.857,4.01-3.07,9.317-6.764,16.22
			c-3.74,6.993-6.86,11.715-9.54,14.435c-2.015,2.053-4.041,3.299-6.02,3.702c-0.25,0.05-0.531,0.074-0.864,0.074
			c-1.448,0-3.861-0.469-7.172-1.394c-1.663-0.496-1.909-1.507-1.909-2.067c0-1.983,2.648-2.475,3.519-2.637
			c2.737-0.51,4.851-1.547,6.282-3.083c3.053-3.24,6.014-7.464,8.804-12.561c3.589-6.504,5.659-12.367,6.329-17.925
			c0.469-3.728-1.273-4.003-2.017-4.121c-0.809-0.103-1.804-0.024-2.74,0.271l-0.134,0.033c-4.864,0.827-9.569,2.551-13.991,5.127
			c-5.268,22.692-9.854,40.663-13.977,54.759c0.076-0.071,0.153-0.146,0.233-0.223C22.476,70.587,23.383,70,24.19,70
			c0.002,0,0.005,0,0.007,0c1.462,0,2.662,1.084,3.768,3.306c0.83,1.643,1.234,2.919,1.234,3.894c0,1.548-0.94,2.568-2.58,2.799
			c-0.257,0.025-1.145,0.259-3.553,2.376c-1.995,1.728-3.721,3.643-5.136,5.697c-0.861,1.252-1.818,2.013-2.846,2.26
			C14.837,90.391,14.582,90.42,14.323,90.42z M30.457,17.385l-0.494,2.336c-3.761,17.764-9.597,38.606-17.839,63.719l-0.128,0.39
			l-0.364,0.188c-0.637,0.329-0.986,0.678-1.036,1.038c-0.082,0.546,0.248,1.173,0.976,1.872c1.369,1.23,2.254,1.493,2.751,1.493
			c0.104,0,0.201-0.011,0.295-0.033c0.523-0.126,1.1-0.628,1.665-1.449c1.511-2.194,3.351-4.237,5.468-6.07
			c2.755-2.422,3.963-2.789,4.632-2.854c0.754-0.107,0.816-0.404,0.816-0.813c0-0.443-0.177-1.323-1.022-2.996
			c-0.809-1.626-1.504-2.203-1.886-2.203c-0.022,0.004-0.492,0.089-1.601,1.109c-2.377,2.249-2.805,2.59-3.019,2.731l-2.309,1.534
			l0.798-2.655c4.396-14.618,9.321-33.748,15.057-58.482l0.096-0.415l0.366-0.218c4.72-2.81,9.759-4.688,14.978-5.584
			c1.188-0.365,2.389-0.475,3.561-0.323c2.035,0.322,4.304,1.68,3.717,6.345c-0.701,5.813-2.847,11.914-6.562,18.645
			c-2.871,5.242-5.932,9.605-9.097,12.965c-1.727,1.851-4.209,3.09-7.375,3.681c-1.261,0.234-1.701,0.522-1.837,0.643
			c0.07,0.044,0.197,0.107,0.417,0.173c4.095,1.144,5.905,1.315,6.618,1.315c0.186,0,0.342-0.009,0.468-0.034
			c1.578-0.322,3.258-1.379,4.989-3.144c2.51-2.547,5.605-7.249,9.203-13.976c3.604-6.736,5.754-11.871,6.573-15.698
			c0.41-1.884,0.618-3.36,0.618-4.389c0-1.312-0.33-2.355-1.008-3.192c-0.58-0.723-1.834-1.759-3.732-3.084l-0.25-0.174l-0.11-0.285
			c-1.388-3.591-3.6-5.208-6.768-4.979c-1.26,0.094-4.132,0.793-10.643,3.583l-0.67,0.287l-0.479-0.549
			c-2.399-2.757-3.409-3.298-3.729-3.403c-0.064,0.16-0.167,0.542-0.167,1.355c0,1.264-0.199,2.853-0.61,4.857l-0.095,0.464
			l-0.419,0.22c-3.906,2.055-8.332,4.993-13.156,8.733c-4.488,3.527-7.602,6.344-9.25,8.369c-2.255,2.803-3.401,5.328-3.401,7.5
			c0,0.83,0.184,1.654,0.546,2.45c3.161,7.438,4.507,8.913,4.9,9.204c0.095-0.152,0.1-0.731,0.1-0.805
			c0-0.249-0.048-0.514-0.143-0.791C10.102,43.72,9.949,43.151,9.9,42.92c-0.234-0.783-0.364-1.695-0.364-2.632
			c0.001-6.321,6.364-13.594,18.91-21.617L30.457,17.385z"/>
	</g>
	<g>
		<path fill="#9E9E9E" d="M90.252,30.983c-1.807-1.074-2.956-1.583-3.449-1.503c-0.493,0.078-0.953,0.906-1.379,2.491
			c-0.264,0.919-0.837,2.529-1.725,4.851c-1.215,3.163-3.974,8.028-8.275,14.869c-4.203,6.617-8.143,12.404-11.818,17.233
			c-1.542,2.072-2.872,3.271-3.987,3.567c-0.657,0.176-0.984-0.188-0.984-1.087c0-0.216,0.016-0.454,0.049-0.715
			c0.886-5.983,3.495-13.114,7.827-21.1c3.742-6.938,7.157-11.782,10.243-14.703c1.413-1.352,3.284-1.7,5.616-1.083
			c0.23,0.063,0.476,0.071,0.739,0.025c0.689-0.119,1.034-0.447,1.034-0.987c0-0.304-0.148-0.566-0.443-0.787
			c-3.317-2.592-5.566-3.876-6.749-3.753c-1.215,0.161-2.594,1.121-4.137,2.909c-4.761,5.491-8.979,12.147-12.654,19.981
			c-3.675,7.835-5.808,14.645-6.398,20.183c-0.065,0.526-0.099,0.99-0.099,1.391c0,2.04,0.869,3.411,2.608,4.091
			c1.214,0.714,2.116,0.983,2.707,0.819c0.722-0.201,1.772-1.016,3.15-2.43c1.903-1.979,5.005-6.218,9.306-12.479
			c4.925-7.176,8.816-13.34,11.674-18.68c-2.069,6.096-3.793,13.68-5.172,22.747c-0.165,1.175-0.165,1.93,0,2.264
			c0.131,0.377,0.64,0.759,1.527,1.137c1.51,0.692,2.545,0.956,3.104,0.808c0.591-0.158,1.034-0.953,1.33-2.381
			c1.018-5.063,3.07-10.307,6.158-15.6c0.263-0.456,0.394-0.833,0.395-1.132c0-0.499-0.247-0.695-0.739-0.591
			c-0.525,0.112-1.019,0.518-1.478,1.219c-0.197,0.21-0.698,0.886-1.502,2.038c-0.805,1.153-1.454,2.025-1.946,2.61
			c1.15-6.094,3.235-13.747,6.257-22.715c0.361-1.056,0.509-1.775,0.444-2.162C91.418,31.875,91.007,31.428,90.252,30.983z"/>
		<path fill="#9E9E9E" d="M58.611,78.723c-0.752,0-1.661-0.316-2.779-0.965c-2.073-0.841-3.168-2.565-3.168-4.992
			c0-0.438,0.036-0.946,0.106-1.514c0.608-5.711,2.791-12.608,6.485-20.485c3.691-7.87,8-14.67,12.804-20.211
			c1.714-1.986,3.272-3.048,4.762-3.245c0.112-0.012,0.2-0.017,0.292-0.017c1.465,0,3.687,1.225,7.204,3.973
			c0.079,0.059,0.15,0.12,0.215,0.182c0.393-1.389,0.967-2.774,2.116-2.957c0.523-0.081,1.223-0.087,4.116,1.631
			c1.037,0.611,1.598,1.285,1.711,2.061c0.093,0.551-0.056,1.369-0.487,2.629c-2.274,6.749-4.038,12.804-5.264,18.064
			c0.43-0.593,0.623-0.829,0.718-0.937c0.596-0.884,1.289-1.416,2.06-1.581c0.155-0.033,0.303-0.049,0.442-0.049
			c0.75,0,1.506,0.5,1.506,1.618c-0.001,0.484-0.174,1.018-0.529,1.632c-3.005,5.153-5.038,10.298-6.043,15.297
			c-0.246,1.185-0.724,2.794-2.052,3.149c-0.833,0.225-2.007-0.052-3.779-0.864c-1.127-0.48-1.783-1.012-2.034-1.661
			c-0.243-0.547-0.263-1.388-0.066-2.787c0.84-5.525,1.817-10.539,2.92-14.996c-2.133,3.476-4.655,7.331-7.607,11.633
			c-4.689,6.828-7.591,10.716-9.41,12.607c-1.55,1.59-2.693,2.446-3.603,2.699C59.048,78.694,58.834,78.723,58.611,78.723z
			 M77.112,29.294c-0.695,0.087-1.845,0.604-3.541,2.57c-4.685,5.404-8.892,12.049-12.506,19.752
			c-3.599,7.674-5.722,14.358-6.309,19.865c-0.062,0.503-0.093,0.929-0.093,1.284c0,1.63,0.627,2.634,1.972,3.159l0.143,0.069
			c1.346,0.793,1.864,0.738,1.933,0.718c0.244-0.067,0.997-0.415,2.702-2.164c1.735-1.805,4.573-5.614,9.198-12.348
			c5.102-7.433,8.901-13.512,11.616-18.585l1.829,0.793c-2.041,6.011-3.767,13.607-5.13,22.576c-0.185,1.316-0.091,1.665-0.079,1.7
			c0.016,0.042,0.18,0.276,1.009,0.63c1.46,0.669,2.107,0.768,2.365,0.768c0,0,0,0,0,0c0.069,0,0.407-0.222,0.697-1.624
			c0.951-4.73,2.779-9.578,5.44-14.429c-0.201,0.276-0.464,0.645-0.809,1.139c-0.837,1.199-1.492,2.077-2.001,2.682l-2.454,2.913
			l0.707-3.743c1.188-6.298,3.305-13.986,6.292-22.849c0.438-1.281,0.41-1.641,0.405-1.678c-0.002-0.016-0.088-0.256-0.753-0.647
			c-1.687-1.002-2.411-1.274-2.692-1.347c-0.121,0.175-0.367,0.632-0.663,1.732c-0.273,0.954-0.847,2.567-1.756,4.948
			c-1.19,3.099-3.77,7.738-8.363,15.044c-4.425,6.967-8.307,12.627-11.869,17.307c-1.7,2.284-3.183,3.572-4.527,3.929
			c-0.803,0.214-1.536-0.053-1.922-0.686c-0.214-0.352-0.318-0.799-0.318-1.368c0-0.254,0.018-0.534,0.057-0.841
			c0.921-6.227,3.592-13.437,7.94-21.451c3.712-6.881,7.223-11.913,10.435-14.952c1.649-1.576,3.872-2.033,6.559-1.323
			c0.103,0.028,0.203,0.024,0.313,0.007c0.058-0.01,0.104-0.021,0.141-0.032C79.116,29.75,77.643,29.294,77.112,29.294z
			 M80.287,34.51c-1.139,0-2.068,0.36-2.842,1.1c-3.061,2.896-6.442,7.758-10.054,14.455c-4.238,7.811-6.651,14.798-7.536,20.771
			C59.831,71.03,60,71.227,60,71.404c0,0.007,0,0.013,0,0.019c0-0.294,1.491-1.087,2.986-3.096
			c3.534-4.644,7.293-10.258,11.685-17.173c4.458-7.091,7.015-11.76,8.141-14.691c0.232-0.609,0.419-1.165,0.607-1.67
			c-0.039,0.008-0.089,0.015-0.129,0.022c-0.414,0.072-0.809,0.054-1.177-0.046C81.464,34.598,80.844,34.51,80.287,34.51z"/>
	</g>
	<g>
		<path fill="#9E9E9E" d="M108.923,26.638c-0.164-0.074-1.001-0.206-2.512-0.394c-1.018-0.569-1.79-0.822-2.315-0.753
			c-0.493,0.064-1.001,0.403-1.527,1.021c-1.741,2.134-3.383,4.4-4.926,6.797c-0.296,0.438-0.443,0.789-0.443,1.05
			c0,0.882,0.542,0.741,1.625-0.408c1.019-1.105,2.036-2.2,3.055-3.285c0.755-0.82,1.28-1.247,1.577-1.289
			c0.394-0.056,0.542,0.644,0.443,2.101c-0.263,3.408-1.429,8.716-3.498,16.105c-2.168,7.637-4.139,13.297-5.912,16.852
			c-0.361,0.746-0.542,1.219-0.542,1.415c0,0.231,0.427,0.472,1.281,0.718c1.346,0.42,2.414,0.527,3.202,0.333
			c0.788-0.195,1.33-0.701,1.625-1.517c0.92-2.619,2.365-5.705,4.336-9.197c2.594-4.58,3.974-6.986,4.138-7.37
			c0.394-0.96,0.328-1.39-0.197-1.293c-0.23,0.042-0.46,0.228-0.69,0.555c-1.675,2.503-2.988,4.29-3.941,5.32
			c3.317-10.747,5.37-18.105,6.158-22.479c0.131-0.743,0.197-1.398,0.196-1.966C110.056,27.757,109.679,26.985,108.923,26.638z"/>
		<path fill="#9E9E9E" d="M97.587,67.995c-0.759,0-1.653-0.159-2.657-0.472c-0.63-0.182-1.985-0.572-1.983-1.675
			c0-0.323,0.107-0.746,0.642-1.849c1.715-3.438,3.681-9.049,5.85-16.689c2.076-7.411,3.208-12.616,3.463-15.909
			c0.009-0.141,0.016-0.268,0.02-0.383c-0.092,0.095-0.195,0.203-0.308,0.325c-1.023,1.089-2.038,2.182-3.055,3.285
			c-0.875,0.927-1.469,1.302-2.057,1.302c-0.472,0-0.887-0.252-1.111-0.673c-0.13-0.245-0.193-0.539-0.193-0.899
			c0-0.476,0.195-0.987,0.614-1.609c1.547-2.403,3.227-4.72,4.98-6.87c0.711-0.836,1.418-1.282,2.173-1.38
			c0.695-0.089,1.593,0.147,2.758,0.776c2.235,0.281,2.442,0.375,2.61,0.451c0.788,0.362,1.721,1.214,1.721,3.229
			c0,0.619-0.071,1.339-0.212,2.139c-0.636,3.525-2.058,8.925-4.533,17.17c0.162-0.239,0.329-0.486,0.5-0.741
			c0.398-0.568,0.845-0.892,1.341-0.983c0.649-0.119,1.112,0.099,1.4,0.53c0.423,0.631,0.188,1.429-0.098,2.127
			c-0.15,0.351-0.765,1.438-2.685,4.823l-1.508,2.66c-1.913,3.39-3.348,6.431-4.263,9.035c-0.412,1.139-1.216,1.881-2.328,2.156
			C98.34,67.954,97.976,67.995,97.587,67.995z M95.108,65.481c0.104,0.037,0.235,0.079,0.397,0.126
			c1.169,0.363,2.087,0.472,2.686,0.323c0.458-0.114,0.744-0.388,0.924-0.887c0.951-2.706,2.434-5.854,4.405-9.348l0.92-1.622
			c-0.001,0.002-0.003,0.003-0.004,0.005l-2.988,3.231l1.298-4.205c3.489-11.305,5.379-18.202,6.13-22.361
			c0.12-0.681,0.181-1.284,0.18-1.788c0-1.157-0.414-1.347-0.55-1.41c0.018,0.018-0.346-0.077-2.218-0.31l-0.194-0.024l-0.171-0.096
			c-1.028-0.575-1.496-0.637-1.65-0.637c-0.156,0.017-0.458,0.111-0.943,0.681c-0.746,0.915-1.481,1.865-2.2,2.844
			c0.007-0.007,0.014-0.015,0.021-0.022c1.131-1.228,1.685-1.526,2.166-1.594l0.183-0.013c0.352,0,0.68,0.144,0.924,0.405
			c0.444,0.475,0.577,1.25,0.475,2.766c-0.265,3.434-1.42,8.765-3.533,16.307c-2.234,7.872-4.19,13.44-5.98,17.028
			C95.261,65.135,95.172,65.331,95.108,65.481z"/>
	</g>
	<g>
		<path fill="#CEC36E" d="M117.593,10.889c0-0.463-0.263-0.862-0.788-1.2c-1.971-1.202-3.251-1.791-3.842-1.75
			c-0.328,0.022-0.871,0.466-1.626,1.339c-0.952,1.173-2.939,3.131-5.96,5.989c-0.295-0.035-0.492,0.018-0.591,0.155
			c-0.066,0.135-0.041,0.3,0.074,0.496c0.115,0.196,0.287,0.378,0.517,0.545c0.723,0.436,1.577,0.696,2.562,0.786
			c1.741,0.17,3.546-0.455,5.419-1.838C116.181,13.26,117.593,11.788,117.593,10.889z"/>
		<path fill="#CEC36E" d="M108.501,18.277L108.501,18.277c-0.221,0-0.441-0.011-0.661-0.032c-1.129-0.103-2.134-0.415-2.98-0.925
			c-0.412-0.295-0.678-0.581-0.863-0.896c-0.386-0.659-0.235-1.185-0.11-1.44l0.086-0.145c0.138-0.192,0.441-0.5,1.001-0.569
			c3.143-2.978,4.77-4.617,5.586-5.623c1.015-1.175,1.686-1.662,2.334-1.707l0.128-0.004c0.589,0,1.561,0.226,4.303,1.898
			c1.051,0.674,1.268,1.488,1.268,2.053c0,1.075-0.787,2.39-4.629,5.318C112.1,17.584,110.266,18.277,108.501,18.277z
			 M106.258,15.81c0.479,0.224,1.087,0.382,1.771,0.444c0.161,0.016,0.316,0.023,0.472,0.023c1.328,0,2.762-0.562,4.263-1.67
			c3.553-2.708,3.813-3.58,3.829-3.727c0-0.125-0.229-0.287-0.328-0.35c-2.138-1.303-2.922-1.543-3.164-1.585
			c-0.12,0.079-0.429,0.317-1.007,0.987C111.23,10.996,109.528,12.712,106.258,15.81z"/>
	</g>
	<g>
		<path fill="#9E9E9E" d="M151.842,39.684c-0.261,0.015-0.523,0.169-0.785,0.466c-1.476,1.744-2.688,3.196-3.639,4.327
			c0.754-2.077,1.573-4.95,2.458-8.595c1.115-4.416,1.672-7.564,1.672-9.524c0.033-1.872-1.312-3.206-4.032-3.978
			c-0.95-0.604-1.639-0.902-2.064-0.893c-0.427,0.01-1.148,0.227-2.165,0.662c-2.033,0.903-5.148,3.722-9.348,8.778
			c-4.2,5.064-7.4,9.829-9.6,14.063c3.348-9.185,5.202-15.228,5.563-18.548c0.164-1.502-1.082-2.512-3.741-3.016
			c-0.592-1.006-1.28-1.48-2.068-1.414c-0.525,0.044-1.033,0.346-1.526,0.908c-2.299,2.705-4.153,5.024-5.564,6.896
			c-0.329,0.349-0.493,0.648-0.493,0.896c0,0.341,0.229,0.482,0.689,0.425c0.361-0.045,0.69-0.225,0.985-0.538
			c1.576-1.516,2.808-2.719,3.693-3.634c0.886-0.915,1.346-1.367,1.379-1.371c0.131-0.012,0.164,0.531,0.099,1.632
			c-0.263,3.615-1.396,8.723-3.397,15.495c-1.872,6.266-3.76,11.597-5.665,15.946c-0.36,0.821-0.542,1.297-0.542,1.423
			c0.033,0.242,0.378,0.435,1.035,0.577c1.675,0.426,2.873,0.562,3.595,0.413c1.019-0.209,1.905-1.172,2.66-2.876
			c6.04-13.767,13.195-24.425,21.46-31.887c0.853-0.759,1.491-1.141,1.918-1.158c0.591-0.022,0.918,0.594,0.983,1.846
			c0.263,3.1-0.508,7.608-2.312,13.705c-1.673,5.801-3.574,10.79-5.707,14.961c-0.426,0.763-0.64,1.25-0.64,1.455
			c0,0.469,0.64,0.836,1.919,1.104c1.147,0.26,2.018,0.348,2.607,0.262c0.755-0.111,1.361-0.645,1.82-1.597
			c0.558-1.367,1.132-2.729,1.722-4.085c3.148-5.314,5.704-9.207,7.67-11.863c0.065-0.171,0.099-0.34,0.099-0.507
			C152.58,39.907,152.334,39.655,151.842,39.684z"/>
		<path fill="#9E9E9E" d="M117.719,62.136c-0.812,0-1.852-0.164-3.18-0.502c-0.379-0.081-1.635-0.354-1.78-1.41l-0.009-0.136
			c0-0.247,0.042-0.493,0.626-1.824c1.863-4.254,3.755-9.58,5.623-15.831c1.853-6.267,2.931-11.011,3.285-14.455
			c-0.782,0.796-1.832,1.825-3.407,3.34c-0.424,0.451-0.958,0.735-1.556,0.809c-0.11,0.014-0.213,0.02-0.308,0.02
			c-0.886,0-1.505-0.591-1.505-1.438c0-0.504,0.237-1.009,0.726-1.54c1.552-2.055,3.426-4.376,5.57-6.899
			c0.676-0.771,1.414-1.19,2.204-1.257c1.088-0.09,2.011,0.426,2.767,1.516c3.666,0.816,4.273,2.622,4.121,4.019
			c-0.236,2.169-1.058,5.393-2.58,10.063c1.454-2.068,3.074-4.179,4.853-6.323c4.14-4.984,7.406-8.274,9.711-9.297
			c1.165-0.498,1.97,0.009,2.547-0.991c0.001,0,0.002,0,0.002,0c0.663,0,1.427,0.544,2.501,1.214
			c3.864,1.143,4.646,3.42,4.618,5.039c0,2.021-0.557,5.277-1.702,9.813c-0.345,1.418-0.681,2.756-1.007,3.946
			c0.148-0.176,0.3-0.179,0.454-0.361c0.457-0.519,0.954-0.65,1.493-0.65h0.128c0.997,0,1.666,0.546,1.666,1.596
			c0,0.289-0.056,0.5-0.165,0.785l-0.13,0.198c-2.106,2.848-4.657,6.772-7.581,11.705c-0.578,1.329-1.142,2.656-1.688,3.997
			c-0.635,1.322-1.502,2.041-2.601,2.203c-0.703,0.104-1.676,0.017-2.974-0.277c-0.727-0.152-2.698-0.568-2.698-2.082
			c0-0.351,0.128-0.798,0.767-1.942c2.072-4.055,3.969-9.029,5.619-14.75c1.782-6.025,2.526-10.388,2.276-13.344
			c-0.023-0.442-0.077-0.708-0.122-0.859c-0.187,0.096-0.542,0.32-1.118,0.833c-8.098,7.312-15.235,17.925-21.209,31.542
			c-0.906,2.045-2.01,3.174-3.375,3.454C118.324,62.11,118.042,62.136,117.719,62.136z M114.947,59.677
			c0.016,0.004,0.032,0.007,0.05,0.011c1.526,0.388,2.642,0.522,3.182,0.411c0.668-0.137,1.341-0.933,1.947-2.302
			c6.087-13.875,13.39-24.796,21.704-32.303c1.068-0.952,1.853-1.494,2.548-1.494c0.001,0,0.003,0,0.004,0
			c0.745,0,1.892,0.445,2.019,2.872c0.27,3.176-0.499,7.819-2.352,14.08c-1.684,5.838-3.628,10.952-5.775,15.153
			c-0.219,0.392-0.35,0.663-0.428,0.833c0.176,0.079,0.487,0.194,1.021,0.307c1.021,0.23,1.774,0.323,2.258,0.253
			c0.148-0.022,0.605-0.088,1.064-1.04c0.535-1.318,1.112-2.687,1.705-4.049l0.057-0.111c1.887-3.185,3.624-5.968,5.192-8.321
			c-0.023,0.028-0.048,0.057-0.071,0.085l-4.52,5.378l1.925-5.304c0.732-2.017,1.549-4.873,2.427-8.49
			c1.091-4.321,1.644-7.443,1.644-9.289c0.009-0.525,0.036-2.067-3.306-3.016l-0.264-0.118c-1.126-0.717-1.493-0.736-1.508-0.737
			c-0.104,0.003-0.554,0.052-1.792,0.582c-1.376,0.611-4.063,2.587-8.971,8.497c-4.029,4.858-7.22,9.529-9.481,13.885l-1.827-0.803
			c3.42-9.383,5.17-15.203,5.509-18.314c0.098-0.89-0.89-1.538-2.934-1.925l-0.445-0.084l-0.23-0.391
			c-0.361-0.616-0.719-0.928-1.063-0.928c-0.379,0.03-0.703,0.328-0.918,0.574c-0.944,1.111-1.836,2.184-2.671,3.211
			c0.185-0.186,0.354-0.358,0.511-0.521c1.54-1.59,1.569-1.417,1.98-1.465L123.26,25h0.432l0.333,0.128
			c0.351,0.371,0.418,0.754,0.328,2.257c-0.266,3.656-1.39,8.743-3.437,15.669c-1.892,6.331-3.813,11.709-5.708,16.038
			C115.097,59.345,115.012,59.519,114.947,59.677z"/>
	</g>
	<g>
		<path fill="#9E9E9E" d="M185.214,6.529c-2.383-1.476-4.196-2.318-5.438-2.538c-1.307-0.231-2.533,0.28-3.677,1.556
			c-1.994,2.237-4.741,7.421-8.243,15.998c-1.014,0.443-2.061,0.788-3.142,1.035c-1.768,0.378-2.979,0.643-3.634,0.76
			c-0.654,0.118-0.982,0.493-0.982,1.119c0,0.573,0.312,0.904,0.934,0.999c1.408,0.22,2.979,0.451,4.714,0.704
			c-3.535,9.962-5.909,18.76-7.12,25.903c-0.066,0.251-0.099,0.472-0.099,0.665c-0.001,1.234,0.933,1.978,2.8,2.25
			c1.506,0.843,2.618,1.24,3.339,1.195c0.721-0.044,1.62-0.514,2.7-1.39c2.553-2.117,5.153-4.572,7.801-7.321
			c0.393-0.411,0.54-0.771,0.442-1.083c-0.099-0.287-0.36-0.435-0.785-0.44c-0.49-0.007-0.997,0.195-1.521,0.611
			c-4.448,3.412-7.116,5.336-8,5.365c-0.556,0.026-0.834-0.417-0.834-1.331c0-0.269,0.017-0.579,0.05-0.929
			c0.85-6.556,3.24-14.615,7.165-23.587c6.542,0.04,10.149,0.287,10.836,0.278c0.851-0.028,1.274-0.314,1.274-0.87
			c0-0.806-0.556-1.247-1.666-1.306c-3.234-0.164-5.817-0.35-7.746-0.645c-0.752-0.09-1.178-0.228-1.275-0.419
			c-0.065-0.109,0.032-0.442,0.294-0.994c2.78-6.235,4.953-10.042,6.521-11.692c1.765-1.845,3.268-2.615,4.509-2.382
			c0.131,0.024,0.335,0.082,0.612,0.172s0.481,0.149,0.612,0.174c0.62,0.121,0.931,0.02,0.931-0.305
			C186.586,7.604,186.129,7.086,185.214,6.529z"/>
		<path fill="#9E9E9E" d="M164.552,57.177c-0.889,0-2.021-0.395-3.556-1.238c-2.863-0.476-3.471-2.001-3.47-3.211
			c0-0.283,0.043-0.584,0.132-0.919c1.182-6.992,3.513-15.583,6.74-24.833c-1.27-0.187-2.442-0.361-3.521-0.529
			c-1.112-0.169-1.779-0.912-1.779-1.987c0-1.113,0.675-1.899,1.805-2.103c0.531-0.095,1.43-0.288,2.696-0.56l0.906-0.194
			c0.872-0.199,1.741-0.475,2.581-0.817c3.348-8.155,6.129-13.505,8.267-15.903c1.372-1.53,2.945-2.167,4.597-1.875
			c1.389,0.245,3.283,1.119,5.791,2.672c0.452,0.275,1.846,1.125,1.846,2.4c0,0.439-0.197,0.832-0.541,1.078
			c-0.255,0.183-0.575,0.276-0.952,0.276l0,0c-0.177,0-0.386-0.021-0.629-0.068c-0.152-0.029-0.398-0.096-0.732-0.206
			c-0.22-0.072-0.381-0.12-0.484-0.14c-0.084-0.016-0.17-0.023-0.258-0.023c-0.604,0-1.674,0.367-3.345,2.113
			c-1.067,1.123-3.032,4.013-6.326,11.397c0.056,0.008,0.116,0.016,0.183,0.024c1.728,0.264,4.014,0.454,7.678,0.639
			c2.427,0.13,2.615,1.797,2.615,2.305c0,0.421-0.162,1.801-2.242,1.869c-0.271-0.004-0.729-0.017-1.386-0.045
			c-1.61-0.068-4.541-0.192-8.829-0.228c-3.632,8.416-5.99,16.257-6.826,22.711c-0.026,0.281-0.042,0.559-0.042,0.801
			c0,0.107,0.005,0.193,0.012,0.262c1.251-0.517,5.232-3.57,7.214-5.089c0.679-0.539,1.392-0.817,2.104-0.817
			c1.248,0.017,1.642,0.786,1.755,1.116c0.156,0.496,0.158,1.237-0.664,2.099c-2.732,2.837-5.385,5.327-7.886,7.401
			c-1.275,1.034-2.345,1.561-3.278,1.618C164.67,57.175,164.612,57.177,164.552,57.177z M161.098,24.452
			c0.021,0.006,0.049,0.011,0.083,0.017c1.41,0.22,2.977,0.451,4.709,0.703l1.205,0.176l-0.407,1.148
			c-3.399,9.579-5.847,18.479-7.076,25.735c-0.073,0.293-0.085,0.424-0.085,0.498c0,0.268-0.001,0.977,1.944,1.26l0.183,0.027
			l0.161,0.09c1.664,0.932,2.43,1.071,2.737,1.071l0.051-0.001c0.28-0.017,0.929-0.191,2.133-1.168
			c2.247-1.863,4.631-4.039,7.089-6.554c-5.59,4.285-7.419,5.548-8.488,5.548c-0.002,0-0.004,0-0.006,0
			c-0.688,0-1.216-0.343-1.524-0.864c-0.227-0.383-0.337-0.898-0.337-1.531c0-0.296,0.018-0.648,0.055-1.034
			c0.884-6.828,3.388-15.083,7.244-23.899l0.264-0.605l0.658,0.002c4.685,0.028,7.856,0.161,9.561,0.233
			c0.613,0.026,1.022,0.044,1.229,0.044c0.107-0.003,0.191-0.012,0.255-0.022c-0.077-0.069-0.254-0.134-0.659-0.156
			c-3.731-0.188-6.078-0.385-7.844-0.655c-0.964-0.115-1.693-0.323-2.015-0.952c-0.313-0.519-0.047-1.187,0.281-1.878
			c2.729-6.122,4.986-10.148,6.7-11.95c1.76-1.84,3.326-2.731,4.792-2.731c0.023,0,0.047,0,0.069,0
			c-2.411-1-3.748-1.897-4.457-2.022c-0.956-0.167-1.852,0.226-2.759,1.237c-1.386,1.556-3.912,5.545-8.062,15.708l-0.153,0.375
			l-0.372,0.163c-1.067,0.466-2.184,0.834-3.319,1.094l-0.918,0.197c-1.299,0.278-2.221,0.476-2.763,0.572
			c-0.086,0.016-0.134,0.035-0.155,0.045C161.102,24.379,161.098,24.408,161.098,24.452z"/>
	</g>
	<g>
		<path fill="#7AEA3F" d="M190,55.667c0,0,8-10,0-10C183,45.667,183,55.667,190,55.667C190,55.667,183,55.667,190,55.667z"/>
	</g>
	<g>
		<path fill="#9E9E9E" d="M232.443,53.904h-3.473V33.236c0-1.633,0.097-3.631,0.291-5.994h-0.082
			c-0.333,1.39-0.632,2.385-0.896,2.986l-10.189,23.676h-1.705L206.219,30.4c-0.291-0.688-0.59-1.74-0.894-3.158h-0.084
			c0.111,1.232,0.167,3.244,0.167,6.037v20.625h-3.369V23.095h4.617l9.15,21.484c0.707,1.647,1.164,2.879,1.373,3.695h0.124
			c0.596-1.69,1.073-2.95,1.435-3.781l9.338-21.398h4.367V53.904z"/>
		<path fill="#9E9E9E" d="M256.09,53.904h-15.806V23.095h15.141v3.266h-11.646v10.248h10.772v3.244h-10.772v10.785h12.312V53.904z"
			/>
	</g>
	<g>
		
			<linearGradient id="SVGID_1_" gradientUnits="userSpaceOnUse" x1="39.7749" y1="93.9678" x2="231.0942" y2="65.9698" gradientTransform="matrix(1.014 -0.0246 -0.0246 0.7915 7.6654 17.8435)">
			<stop  offset="0" style="stop-color:#FF0015"/>
			<stop  offset="0.1683" style="stop-color:#FF5C0D"/>
			<stop  offset="0.3365" style="stop-color:#FFB206"/>
			<stop  offset="0.4542" style="stop-color:#FFE702"/>
			<stop  offset="0.5113" style="stop-color:#FFFC00"/>
			<stop  offset="0.5557" style="stop-color:#F5FA02"/>
			<stop  offset="0.6309" style="stop-color:#DAF408"/>
			<stop  offset="0.7278" style="stop-color:#AFEB11"/>
			<stop  offset="0.8427" style="stop-color:#73DD1D"/>
			<stop  offset="0.9713" style="stop-color:#27CD2D"/>
			<stop  offset="1" style="stop-color:#15C931"/>
		</linearGradient>
		<path fill="url(#SVGID_1_)" d="M41.938,93.963c0.265-0.044,0.534-0.09,0.794-0.132c-0.396,0.19-1.065,0.396-1.856,0.606
			c8.113-1.665,17.2-4.604,22.941-6.867c2.252-0.521,4.092-1.207,4.119-1.563c0.02-0.354-1.805-0.228-4.098,0.294
			c-0.523,0.086-1.131,0.212-1.53,0.252c-1.79,0.182-3.748,0.446-5.84,0.787c-2.108,0.366-4.35,0.804-6.688,1.301
			c0.931-0.152,1.9-0.309,2.834-0.459c-1.351,0.282-2.68,0.541-4.15,0.962c0.204,0.003,0.435,0.009,0.641,0.014
			c-4.809,0.871-10.979,2.9-13.571,4.475c-2.585,1.559-0.542,1.825,4.271,0.757C40.517,94.249,41.228,94.105,41.938,93.963z"/>
		
			<linearGradient id="SVGID_2_" gradientUnits="userSpaceOnUse" x1="40.2593" y1="97.2783" x2="231.5826" y2="69.2798" gradientTransform="matrix(1.014 -0.0246 -0.0246 0.7915 7.6654 17.8435)">
			<stop  offset="0" style="stop-color:#FF0015"/>
			<stop  offset="0.1683" style="stop-color:#FF5C0D"/>
			<stop  offset="0.3365" style="stop-color:#FFB206"/>
			<stop  offset="0.4542" style="stop-color:#FFE702"/>
			<stop  offset="0.5113" style="stop-color:#FFFC00"/>
			<stop  offset="0.5557" style="stop-color:#F5FA02"/>
			<stop  offset="0.6309" style="stop-color:#DAF408"/>
			<stop  offset="0.7278" style="stop-color:#AFEB11"/>
			<stop  offset="0.8427" style="stop-color:#73DD1D"/>
			<stop  offset="0.9713" style="stop-color:#27CD2D"/>
			<stop  offset="1" style="stop-color:#15C931"/>
		</linearGradient>
		<path fill="url(#SVGID_2_)" d="M51.54,93.217c-1.36,0.264-2.695,0.508-4.019,0.769c-1.333,0.257-2.672,0.677-4.006,0.805
			c-0.196,0.019-0.392,0.036-0.587,0.056c0.202,0.129,0.404,0.257,0.606,0.388c0.007-0.011,0.013-0.022,0.02-0.033
			c0.965-0.521,2.381-1.132,3.972-1.703c1.591-0.574,3.373-1.164,5.088-1.708c0.4-0.134,0.799-0.268,1.199-0.4
			c0.553-0.219,0.883-0.413,0.933-0.542c0.122-0.292-1.142-0.197-2.824,0.214c-0.648,0.167-1.298,0.333-1.948,0.5
			c-4.851,1.01-12.393,3.372-14.16,4.943c-0.39,0.35,0.376,0.378,0.728,0.521c0.161,0.318,2.171-0.019,4.471-0.739
			c2.299-0.693,4.04-1.489,3.918-1.823c0.408-0.101,0.832-0.2,1.237-0.299c-0.273,0.126-0.545,0.253-0.821,0.381
			c0.405-0.452,2.445-1.119,3.884-1.691c0.759-0.245,1.519-0.491,2.278-0.736c-0.642-0.101-1.283-0.2-1.925-0.3
			c-0.384,0.146-0.767,0.292-1.151,0.438c0.12,0.004,0.34-0.007,0.326,0c-1.084,0.427-2.138,0.843-3.212,1.267
			c-1.083,0.436-2.196,0.871-3.41,1.319c0,0-0.739,0.304-1.477,0.61c-0.738,0.315-1.476,0.638-1.476,0.638
			c-0.731,0.403-0.43,0.551,0.64,0.354c0,0,0.391-0.08,0.784-0.16c0.391-0.078,0.782-0.157,0.782-0.157
			c-0.243,0.035-0.485,0.084-0.728,0.122c3.404-0.869,6.898-1.82,10.221-2.545c0.53-0.11,1.117-0.31,1.323-0.453
			C52.373,93.117,52.089,93.098,51.54,93.217z"/>
		<g>
			
				<linearGradient id="SVGID_3_" gradientUnits="userSpaceOnUse" x1="40.6641" y1="100.0557" x2="231.9547" y2="72.0619" gradientTransform="matrix(1.014 -0.0246 -0.0246 0.7915 7.6654 17.8435)">
				<stop  offset="0" style="stop-color:#FF0015"/>
				<stop  offset="0.1683" style="stop-color:#FF5C0D"/>
				<stop  offset="0.3365" style="stop-color:#FFB206"/>
				<stop  offset="0.4542" style="stop-color:#FFE702"/>
				<stop  offset="0.5113" style="stop-color:#FFFC00"/>
				<stop  offset="0.5557" style="stop-color:#F5FA02"/>
				<stop  offset="0.6309" style="stop-color:#DAF408"/>
				<stop  offset="0.7278" style="stop-color:#AFEB11"/>
				<stop  offset="0.8427" style="stop-color:#73DD1D"/>
				<stop  offset="0.9713" style="stop-color:#27CD2D"/>
				<stop  offset="1" style="stop-color:#15C931"/>
			</linearGradient>
			<path fill="url(#SVGID_3_)" d="M40.238,96.717c-0.58,0.122-1.145,0.235-1.879,0.493c-0.145,0.087-0.219,0.129-0.257,0.153
				c0.311-0.061,0.732-0.146,1.152-0.227C40.078,96.973,40.384,96.79,40.238,96.717z"/>
			
				<linearGradient id="SVGID_4_" gradientUnits="userSpaceOnUse" x1="40.6938" y1="100.3008" x2="231.8336" y2="72.3291" gradientTransform="matrix(1.014 -0.0246 -0.0246 0.7915 7.6654 17.8435)">
				<stop  offset="0" style="stop-color:#FF0015"/>
				<stop  offset="0.1683" style="stop-color:#FF5C0D"/>
				<stop  offset="0.3365" style="stop-color:#FFB206"/>
				<stop  offset="0.4542" style="stop-color:#FFE702"/>
				<stop  offset="0.5113" style="stop-color:#FFFC00"/>
				<stop  offset="0.5557" style="stop-color:#F5FA02"/>
				<stop  offset="0.6309" style="stop-color:#DAF408"/>
				<stop  offset="0.7278" style="stop-color:#AFEB11"/>
				<stop  offset="0.8427" style="stop-color:#73DD1D"/>
				<stop  offset="0.9713" style="stop-color:#27CD2D"/>
				<stop  offset="1" style="stop-color:#15C931"/>
			</linearGradient>
			<path fill="url(#SVGID_4_)" d="M38.101,97.363c-0.29,0.059-0.482,0.095-0.482,0.095c0.125-0.013,0.243-0.022,0.358-0.035
				c0.075-0.032,0.079-0.032,0.079-0.032S38.057,97.39,38.101,97.363z"/>
			
				<linearGradient id="SVGID_5_" gradientUnits="userSpaceOnUse" x1="39.2129" y1="90.168" x2="230.546" y2="62.168" gradientTransform="matrix(1.014 -0.0246 -0.0246 0.7915 7.6654 17.8435)">
				<stop  offset="0" style="stop-color:#FF0015"/>
				<stop  offset="0.1683" style="stop-color:#FF5C0D"/>
				<stop  offset="0.3365" style="stop-color:#FFB206"/>
				<stop  offset="0.4542" style="stop-color:#FFE702"/>
				<stop  offset="0.5113" style="stop-color:#FFFC00"/>
				<stop  offset="0.5557" style="stop-color:#F5FA02"/>
				<stop  offset="0.6309" style="stop-color:#DAF408"/>
				<stop  offset="0.7278" style="stop-color:#AFEB11"/>
				<stop  offset="0.8427" style="stop-color:#73DD1D"/>
				<stop  offset="0.9713" style="stop-color:#27CD2D"/>
				<stop  offset="1" style="stop-color:#15C931"/>
			</linearGradient>
			<path fill="url(#SVGID_5_)" d="M176.912,69.428c4.935-0.477,9.873-0.942,14.812-1.396c2.475-0.223,4.931-0.46,7.416-0.659
				c2.483-0.199,4.965-0.395,7.448-0.581c0.332-0.025,0.604-0.085,0.609-0.135c0.008-0.044-0.259-0.068-0.563-0.039
				c-2.487,0.186-4.968,0.378-7.45,0.575c-2.48,0.197-4.935,0.434-7.4,0.654c-4.931,0.45-9.858,0.914-14.791,1.39
				c-0.333,0.038-0.597,0.102-0.63,0.154C176.36,69.441,176.601,69.455,176.912,69.428z"/>
			
				<linearGradient id="SVGID_6_" gradientUnits="userSpaceOnUse" x1="40.7935" y1="100.9873" x2="232.1264" y2="72.9873" gradientTransform="matrix(1.014 -0.0246 -0.0246 0.7915 7.6654 17.8435)">
				<stop  offset="0" style="stop-color:#FF0015"/>
				<stop  offset="0.1683" style="stop-color:#FF5C0D"/>
				<stop  offset="0.3365" style="stop-color:#FFB206"/>
				<stop  offset="0.4542" style="stop-color:#FFE702"/>
				<stop  offset="0.5113" style="stop-color:#FFFC00"/>
				<stop  offset="0.5557" style="stop-color:#F5FA02"/>
				<stop  offset="0.6309" style="stop-color:#DAF408"/>
				<stop  offset="0.7278" style="stop-color:#AFEB11"/>
				<stop  offset="0.8427" style="stop-color:#73DD1D"/>
				<stop  offset="0.9713" style="stop-color:#27CD2D"/>
				<stop  offset="1" style="stop-color:#15C931"/>
			</linearGradient>
			<path fill="url(#SVGID_6_)" d="M251.33,68.411c-0.229,0.047-0.216,0.098,0.028,0.121c0.208,0.021,0.578,0.008,0.807-0.037
				c0.193-0.04,0.182-0.101-0.029-0.122C251.893,68.348,251.521,68.37,251.33,68.411z"/>
			
				<linearGradient id="SVGID_7_" gradientUnits="userSpaceOnUse" x1="40.6958" y1="100.2617" x2="232.0207" y2="72.2629" gradientTransform="matrix(1.014 -0.0246 -0.0246 0.7915 7.6654 17.8435)">
				<stop  offset="0" style="stop-color:#FF0015"/>
				<stop  offset="0.1683" style="stop-color:#FF5C0D"/>
				<stop  offset="0.3365" style="stop-color:#FFB206"/>
				<stop  offset="0.4542" style="stop-color:#FFE702"/>
				<stop  offset="0.5113" style="stop-color:#FFFC00"/>
				<stop  offset="0.5557" style="stop-color:#F5FA02"/>
				<stop  offset="0.6309" style="stop-color:#DAF408"/>
				<stop  offset="0.7278" style="stop-color:#AFEB11"/>
				<stop  offset="0.8427" style="stop-color:#73DD1D"/>
				<stop  offset="0.9713" style="stop-color:#27CD2D"/>
				<stop  offset="1" style="stop-color:#15C931"/>
			</linearGradient>
			<path fill="url(#SVGID_7_)" d="M249.588,72.302c-1.347,0.13-2.625,0.271-3.761,0.456c-0.209,0.028-0.451,0.036-0.635,0.027
				c0.09,0.074-0.163,0.156-0.646,0.212c-4.777,0.565-9.73,1.033-14.762,1.549c-5.03,0.55-10.134,1.089-15.19,1.676
				c-0.056,0.068-0.179,0.139-0.396,0.217c-0.664,0.252-2.058,0.468-3.533,0.556c-0.37,0.016-0.742,0.028-1.113,0.043
				c-4.491,0.273-8.968,0.553-13.454,0.905c-0.891,0.183-1.933,0.351-3.081,0.49c-3.79,0.644-7.597,1.29-11.498,1.909
				c0.264,0.023,0.428,0.071,0.445,0.142c-0.036,0.174-0.915,0.4-1.983,0.516c-0.536,0.063-1.071,0.129-1.608,0.194
				c1.554-0.134,3.11-0.265,4.661-0.393c0.222-0.022,0.43-0.034,0.62-0.039c1.693-0.182,3.4-0.372,5.131-0.574
				c3.78-0.443,7.501-0.9,11.168-1.363c3.663-0.435,7.273-0.86,10.852-1.299c7.158-0.866,14.188-1.768,21.197-2.605
				c0.229-0.041,0.592-0.058,0.805-0.03c0.145,0.034,0.125,0.09-0.131,0.128c-8.779,1.426-16.261,3.149-26.165,4.556
				c-5.882,0.819-11.769,1.767-17.678,2.675c-5.912,0.916-11.859,1.843-17.927,2.787c-12.853,1.618-24.727,3.651-37.677,5.931
				c-17.403,3.098-33.623,6.067-49.659,9.647c-5.939,1.445-11.64,2.115-13.048,1.42c-0.829-0.434,0.126-1.282,2.359-2.237
				c-0.493,0.114-0.979,0.229-1.469,0.346c-0.794,0.154-1.589,0.311-2.384,0.467c-2.278,0.431-4.259,0.699-5.666,0.708
				c-0.636,0.02-1.271,0.038-1.905,0.06c-1.371-0.069-3,0.011-4.644,0.068c-1.638,0.061-3.253,0.114-4.458,0.029
				c0.042-0.126,0.085-0.253,0.129-0.38c-0.164,0.018-0.326,0.032-0.489,0.049c-1.557,0.217-2.748,0.25-3.354,0.083
				c-0.068-0.116-0.136-0.235-0.202-0.353c-0.09-0.447,0.253-0.997,1.074-1.662c-0.178-0.121-0.173-0.295,0.002-0.51
				c-1.31-0.031-2.144-0.221-1.732-0.838c-0.7,0.09-0.744-0.077-0.098-0.376c0.223-0.103,0.508-0.211,0.809-0.31
				c-0.005-0.001-0.008,0.001-0.008,0.001c-0.417,0.019-0.541,0.024-1.088,0.07c-0.637,0.152-1.009,0.243-1.009,0.243
				c-1.683,0.436-1.683,0.436-3.14,0.817c-1.324,0.282-2.25,0.377-2.25,0.377c-1.993-0.103-2.008-0.097-2.079-0.398
				c0.052-0.05,0.114-0.1,0.184-0.151c-1.189,0.281-1.274,0.301-1.601,0.374c-0.362,0.061-0.637,0.085-0.637,0.085
				c-0.206-0.108-0.206-0.108-0.452-0.09c-0.122-0.026-0.167-0.076-0.167-0.076c0.441-0.34,0.444-0.34,0.409-0.384
				c0.1-0.087,0.264-0.182,0.264-0.182c0.676-0.281,0.945-0.393,1.059-0.441c1.948-0.188,1.955-0.187,1.955-0.187
				c0.207-0.224,0.207-0.224,0.207-0.224c0.536,0.034,0.536,0.034,0.536,0.034c-0.365-0.069-0.365-0.069-0.365-0.069
				c0.883-0.175,0.883-0.174,0.883-0.174c-1.038,0.17-1.039,0.17-1.039,0.17c1.921-0.559,1.919-0.544,2.659-0.781
				c0.791-0.22,1.417-0.455,1.494-0.481c-0.111-0.024-0.149-0.055-0.149-0.055c2.048-0.547,2.05-0.563,4.046-1.064
				c0.209-0.018,0.381-0.026,0.544-0.032c0.148-0.094,0.498-0.225,0.89-0.32c0.345-0.088,0.692-0.176,1.037-0.264
				c0.071-0.029,0.137-0.056,0.2-0.081c-0.008-0.007-0.012-0.012-0.012-0.012c0.32-0.124,0.55,0.063,0.804-0.035
				c0.159-0.064,0.171,0.208,0.171,0.208c0.002,0,0.009,0,0.011,0c0.532-0.85,1.335-0.813,3.456-1.601
				c0.617-0.145,1.193-0.409,1.746-0.523c-0.188,0.023-0.372-0.024-0.549-0.005c-0.356,0.038-0.173-0.206-0.356-0.171
				c-1.124,0.215-2.265,0.429-3.419,0.679c-1.157,0.262-2.33,0.53-3.509,0.817c-2.354,0.557-4.758,1.206-7.157,1.849
				c-0.817,0.272-1.68,0.433-1.917,0.381c-0.222-0.071,0.276-0.355,1.121-0.63c8.815-3.65,20.67-6.633,30.573-8.22
				c2.556-0.504,5.118-1.055,7.691-1.549c-0.135-0.015-0.271-0.028-0.406-0.043c0.676-0.104,1.35-0.21,2.022-0.313
				c0.073,0.003,0.147,0.006,0.22,0.01c-0.542,0.019-1.081,0.064-1.619,0.083c-0.357,0.052-0.711,0.11-1.071,0.159
				c-5.948,1.194-11.54,2.039-17.497,3.26c-3.189,0.64-6.061,1.137-9.171,1.768c-0.775,0.19-1.38,0.257-1.375,0.136
				c0.013-0.123,0.672-0.38,1.432-0.572c9.842-2.91,21.198-5.352,29.395-6.106c1.775-0.375,3.511-0.661,4.995-0.783
				c0.026-0.004,0.053-0.008,0.08-0.012c-0.403,0.001-0.787,0.001-1.19,0.003c1.343-0.215,2.131-0.18,3.368-0.348
				c-0.193-0.065-0.392-0.139-0.583-0.207c6.585-1.134,13.551-2.533,19.675-3.141c0.243-0.034,0.47-0.064,0.699-0.095
				c2.489-0.667,5.004-1.306,8.039-1.846c-1.042,0.14-2.059,0.278-3.1,0.419c2.162-0.507,4.323-0.958,6.681-1.324
				c6.403-1.014,13.644-1.607,17.213-1.286c6.099-0.936,12.201-1.838,18.297-2.699c6.106-0.879,12.209-1.718,18.303-2.517
				c0.63-0.088,1.216-0.087,1.353-0.009c0.089,0.08-0.304,0.217-0.937,0.304c-8.732,1.311-17.512,2.662-26.366,4.027
				c7.482-0.861,14.954-1.718,22.611-2.587c0.97-0.127,1.947-0.256,2.927-0.382c0.969-0.129,1.937-0.212,2.907-0.285
				c4.883-0.553,9.646-1.06,14.423-1.577c2.389-0.255,4.784-0.516,7.197-0.785c2.427-0.251,4.88-0.506,7.374-0.778
				c8.514-0.93,15.957-1.722,24.437-2.6c5.988-0.546,11.716-1.041,17.439-1.455c2.859-0.205,5.719-0.391,8.606-0.55
				c1.444-0.074,2.896-0.146,4.356-0.218c0.42-0.017,0.842-0.033,1.263-0.05c0.404-0.021,1.172-0.021,1.79-0.026
				c0.563-0.001,1.127-0.001,1.692,0c0.157,0.002,0.316,0.004,0.477,0.007c0.219,0.006,0.954,0.012,1.413,0.066
				c0.473,0.056,0.813,0.147,0.894,0.266c0.192,0.229-0.801,0.479-2.023,0.536c-0.195,0.008-0.389,0.016-0.586,0.023
				c-0.098,0.006-0.195,0.01-0.295,0.015c-0.067,0.001-0.055,0.005-0.188,0.007c-0.159,0.003-0.32,0.006-0.481,0.007
				c-0.641,0.013-1.28,0.024-1.92,0.037c-0.355,0.006-0.553,0.022-0.808,0.035c-0.234,0.013-0.47,0.027-0.705,0.042
				c-1.537,0.102-3.075,0.208-4.616,0.314c-3.073,0.216-6.146,0.439-9.219,0.674c-6.134,0.456-12.273,0.946-18.447,1.482
				c-6.14,0.584-12.316,1.18-18.567,1.777c-3.124,0.298-6.271,0.597-9.437,0.894c-3.176,0.286-6.335,0.637-9.543,0.947
				c-2.765,0.277-5.488,0.554-8.192,0.836c0.043,0.028,0.084,0.056,0.092,0.09c0.034,0.127-0.196,0.273-0.604,0.42
				c3.08-0.308,6.179-0.589,9.296-0.844c2.143-0.289,4.285-0.576,6.435-0.858c2.156-0.266,4.336-0.509,6.529-0.743
				c4.392-0.464,8.866-0.864,13.498-1.152c6.363-0.387,12.129-0.553,18.055-0.577c7.425-0.54,14.831-1.066,22.345-1.479
				c0.303-0.028,0.615-0.016,0.724,0.026c0.113,0.044-0.045,0.095-0.349,0.122c-5.15,0.49-10.422,0.938-15.738,1.394
				c0.857,0.107,1.38,0.275,1.337,0.487c-0.046,0.221-0.675,0.445-1.654,0.63c1.207-0.055,2.415-0.105,3.621-0.157
				c0.746-0.026,1.343,0.032,1.332,0.141c-0.004,0.116-0.59,0.227-1.297,0.256c-4.92,0.215-9.829,0.45-14.741,0.71
				c-5.862,0.502-11.762,1.03-17.634,1.603c0.845,0.076,1.749,0.178,1.741,0.373c0,0.001-0.001,0.003-0.001,0.004
				c1.017-0.078,1.876-0.148,2.782-0.223c4.125-0.472,8.309-0.921,12.497-1.311c4.192-0.355,8.427-0.67,12.668-0.948
				c4.243-0.276,8.509-0.514,12.785-0.708c1.071-0.047,2.142-0.092,3.213-0.137c1.065-0.033,2.106-0.108,3.476-0.088
				c0.539,0.001,1.079,0.005,1.62,0.008c0.469-0.003,0.869,0.023,1.402,0.002c1.017-0.024,2.035-0.048,3.049-0.068
				c0.322-0.011,0.589,0.021,0.6,0.073c0.011,0.049-0.23,0.097-0.521,0.102c-1.227,0.02-2.488,0.06-3.684,0.078
				c-0.563-0.004-1.126-0.01-1.689-0.016c-0.747,0.003-1.563-0.12-2.258-0.095c-2.661,0.1-5.189,0.342-7.78,0.234
				c0.007,0,0.016,0,0.022,0c0.213,0.009,0.253,0.18,0.029,0.226c-0.198,0.04-0.606,0.108-0.81,0.089
				c-0.243-0.025-0.228-0.055-0.033-0.096c-4.803,0.243-9.583,0.554-14.337,0.901c-2.373,0.179-4.742,0.37-7.105,0.561
				c-2.359,0.194-4.697,0.459-7.033,0.699c2.177-0.168,4.356-0.35,6.54-0.489c2.185-0.128,4.37-0.251,6.555-0.37
				c4.368-0.23,8.738-0.425,13.105-0.565c0.948-0.104,1.889-0.204,2.852-0.309c0.259-0.021,0.607-0.005,0.716,0.035
				c0.078,0.04-0.112,0.098-0.379,0.119c-0.267,0.027-0.533,0.054-0.799,0.081c1.654-0.053,2.942,0.107,2.934,0.368
				c-0.072,0.267-1.472,0.525-3.181,0.59c-4.577,0.244-9.139,0.486-13.702,0.733c-0.49,0.04-0.984,0.081-1.476,0.123
				c-0.491,0.066-0.979,0.133-1.473,0.201c7.113-0.277,14.204-0.479,21.24-0.623c0.603-0.026,1.122,0.027,1.138,0.119
				c0.022,0.09-0.461,0.188-1.065,0.215c-6.171,0.428-12.373,0.867-18.606,1.32c-3.11,0.231-6.236,0.44-9.361,0.704
				c-3.123,0.269-6.254,0.548-9.387,0.837c-4.043,0.71-8.104,1.439-12.231,2.198c0.531-0.041,1.066-0.083,1.602-0.124
				c6.813-0.571,13.059-1.341,19.254-2.098c1.552-0.198,3.098-0.365,4.648-0.527c1.556-0.161,3.111-0.319,4.679-0.477
				c3.14-0.304,6.33-0.573,9.631-0.785c0.326-0.027,0.607,0.001,0.653,0.045c0.042,0.043-0.18,0.1-0.516,0.116
				c-6.433,0.461-12.268,1.126-18.612,1.805c-5.257,0.605-10.251,1.195-15.108,1.892c5.012-0.459,9.905-0.983,14.787-1.498
				c2.442-0.271,4.877-0.462,7.329-0.684c2.448-0.208,4.909-0.407,7.392-0.585c0.434-0.04,0.873-0.04,1.155-0.005
				c0.021-0.027,0.106-0.056,0.238-0.076c1.231-0.187,2.579-0.341,3.959-0.48c0.264-0.032,0.6-0.028,0.747,0.016
				C250.04,72.207,249.881,72.26,249.588,72.302z M71.994,89.918c-0.111,0.001-0.2,0.008-0.284,0.008
				c0.29-0.038,0.601-0.078,0.943-0.123c0,0.002,0,0,1.449,0.063C74.102,89.865,73.05,89.891,71.994,89.918z M57.413,95.033
				c0.003,0,0.003-0.001,0.009-0.003c-0.495,0.003-0.854,0.004-0.854,0.004C56.914,95.034,57.187,95.034,57.413,95.033z
				 M155.35,73.429c-5.34,0.706-10.648,1.354-15.991,1.884c1.282-0.207,2.56-0.412,3.844-0.613
				C147.233,74.242,151.281,73.819,155.35,73.429z M60.613,91.202c1.555-0.187,2.816-0.25,4.015-0.284
				c0.903-0.276,1.868-0.533,2.861-0.758c2.667-0.606,5.278-1.181,7.856-1.682c-0.401-0.048,0.218-0.17,0.521-0.255
				c0.316-0.084,0.627-0.166,0.939-0.245c-1.384,0.259-2.77,0.521-4.163,0.784c-1.4,0.274-2.804,0.55-4.222,0.83
				C65.859,90.087,63.1,90.734,60.613,91.202z M41.985,97.031c-0.093,0.014-0.175,0.024-0.276,0.037c0,0,0,0,0.328-0.324
				C42.038,96.744,42.015,96.866,41.985,97.031z M41.497,97.563c0.133-0.031,0.266-0.066,0.412-0.103
				C41.836,97.565,41.688,97.584,41.497,97.563z M45.258,96.669c-0.254,0.021-0.41,0.033-0.593,0.063
				C45.257,96.67,45.258,96.669,45.258,96.669z M52.58,100.816c0,0,0.11-0.303,0.22-0.604c0.121-0.303,0.242-0.604,0.242-0.604
				c0-0.001-0.158,0.301-0.316,0.603c-0.144,0.3-0.29,0.604-0.29,0.604C52.484,100.816,52.532,100.815,52.58,100.816z"/>
		</g>
	</g>
</g>
<g id="Layer_2">
</g>
</svg>
